<svg xmlns="http://www.w3.org/2000/svg" xmlns:xlink="http://www.w3.org/1999/xlink" xmlns:lucid="lucid" width="780" height="503.33"><g transform="translate(-180 -56.66666666666667)" lucid:page-tab-id="0_0"><path d="M0 0h1870.4v1323.2H0z" fill="#fff"/><path d="M200 200h320v320H200z" stroke="#000" stroke-width="2" fill="#e5e5e5"/><path d="M240 240h80v80h-80z" stroke="#000" stroke-width="2" fill="#fff"/><use xlink:href="#a" transform="matrix(1,0,0,1,245,245) translate(7.825000000000003 38.6)"/><use xlink:href="#b" transform="matrix(1,0,0,1,245,245) translate(37.725 38.6)"/><path d="M320 240h80v80h-80z" stroke="#000" stroke-width="2" fill="#fff"/><use xlink:href="#c" transform="matrix(1,0,0,1,325,245) translate(15.8 38.6)"/><use xlink:href="#b" transform="matrix(1,0,0,1,325,245) translate(29.75 38.6)"/><path d="M400 240h80v80h-80z" stroke="#000" stroke-width="2" fill="#fff"/><use xlink:href="#d" transform="matrix(1,0,0,1,405,245) translate(5.549999999999997 38.6)"/><use xlink:href="#b" transform="matrix(1,0,0,1,405,245) translate(40 38.6)"/><path d="M240 320h80v80h-80z" stroke="#000" stroke-width="2" fill="#fff"/><use xlink:href="#a" transform="matrix(1,0,0,1,245,325) translate(18.075 38.6)"/><use xlink:href="#e" transform="matrix(1,0,0,1,245,325) translate(47.974999999999994 38.6)"/><path d="M320 320h80v80h-80z" stroke="#000" stroke-width="2" fill="#fff"/><use xlink:href="#c" transform="matrix(1,0,0,1,325,325) translate(26.05 38.6)"/><use xlink:href="#e" transform="matrix(1,0,0,1,325,325) translate(40 38.6)"/><path d="M400 320h80v80h-80z" stroke="#000" stroke-width="2" fill="#fff"/><use xlink:href="#d" transform="matrix(1,0,0,1,405,325) translate(15.799999999999997 38.6)"/><use xlink:href="#e" transform="matrix(1,0,0,1,405,325) translate(50.25 38.6)"/><path d="M240 400h80v80h-80z" stroke="#000" stroke-width="2" fill="#fff"/><use xlink:href="#a" transform="matrix(1,0,0,1,245,405) translate(10.100000000000001 38.6)"/><use xlink:href="#f" transform="matrix(1,0,0,1,245,405) translate(40 38.6)"/><path d="M320 400h80v80h-80z" stroke="#000" stroke-width="2" fill="#fff"/><use xlink:href="#c" transform="matrix(1,0,0,1,325,405) translate(18.075000000000003 38.6)"/><use xlink:href="#f" transform="matrix(1,0,0,1,325,405) translate(32.025000000000006 38.6)"/><path d="M400 400h80v80h-80z" stroke="#000" stroke-width="2" fill="#fff"/><use xlink:href="#d" transform="matrix(1,0,0,1,405,405) translate(7.824999999999999 38.6)"/><use xlink:href="#f" transform="matrix(1,0,0,1,405,405) translate(42.275000000000006 38.6)"/><path d="M240 140h240v60H240z" stroke="#000" stroke-opacity="0" stroke-width="2" fill="#fff" fill-opacity="0"/><use xlink:href="#g" transform="matrix(1,0,0,1,245,145) translate(91.025 28.6)"/><path d="M820 250h120v60H820z" stroke="#000" stroke-opacity="0" stroke-width="2" fill="#fff" fill-opacity="0"/><use xlink:href="#h" transform="matrix(1,0,0,1,825,255) translate(25.5 28.6)"/><path d="M840 320h80v80h-80z" stroke="#000" stroke-width="2" fill="#fff"/><use xlink:href="#c" transform="matrix(1,0,0,1,845,325) translate(26.05 38.6)"/><use xlink:href="#e" transform="matrix(1,0,0,1,845,325) translate(40 38.6)"/><path d="M600 300h160v120H600z" stroke="#000" stroke-width="2" fill="#99d5ca"/><use xlink:href="#i" transform="matrix(1,0,0,1,605,305) translate(50.55 58.6)"/><path d="M240 480h240v60H240z" stroke="#000" stroke-opacity="0" stroke-width="2" fill="#fff" fill-opacity="0"/><g><use xlink:href="#j" transform="matrix(1,0,0,1,245,485) translate(51.599999999999994 28.6)"/><use xlink:href="#k" transform="matrix(1,0,0,1,245,485) translate(85.6 28.6)"/><use xlink:href="#l" transform="matrix(1,0,0,1,245,485) translate(127.5 28.6)"/></g><path d="M522 360h58.5" stroke="#000" stroke-width="2" fill="none"/><path d="M522.03 361H521v-2h1.03z"/><path d="M595.76 360l-14.26 4.64v-9.28z" stroke="#000" stroke-width="2"/><path d="M762 360h58.5" stroke="#000" stroke-width="2" fill="none"/><path d="M762.03 361H761v-2h1.03z"/><path d="M835.76 360l-14.26 4.64v-9.28z" stroke="#000" stroke-width="2"/><path d="M440 76.67h340V140H440z" stroke="#000" stroke-opacity="0" stroke-width="2" fill="#fff" fill-opacity="0"/><g><use xlink:href="#m" transform="matrix(1,0,0,1,445,81.66666666666667) translate(10.895061728395063 31.444444444444443)"/><use xlink:href="#n" transform="matrix(1,0,0,1,445,81.66666666666667) translate(70.0925925925926 31.444444444444443)"/><use xlink:href="#o" transform="matrix(1,0,0,1,445,81.66666666666667) translate(142.80864197530863 31.444444444444443)"/><use xlink:href="#p" transform="matrix(1,0,0,1,445,81.66666666666667) translate(232.80864197530863 31.444444444444443)"/></g><defs><path d="M24-231v-30h32v30H24zM24 0v-190h32V0H24" id="q"/><path d="M16-82v-28h88v28H16" id="r"/><path d="M27 0v-27h64v-190l-56 39v-29l58-41h29v221h61V0H27" id="s"/><path d="M68-38c1 34 0 65-14 84H32c9-13 17-26 17-46H33v-38h35" id="t"/><g id="a"><use transform="matrix(0.05,0,0,0.05,0,0)" xlink:href="#q"/><use transform="matrix(0.05,0,0,0.05,3.95,0)" xlink:href="#r"/><use transform="matrix(0.05,0,0,0.05,9.9,0)" xlink:href="#s"/><use transform="matrix(0.05,0,0,0.05,19.9,0)" xlink:href="#t"/></g><path d="M24-231v-30h32v30H24zM-9 49c24 4 33-6 33-30v-209h32V24c2 40-23 58-65 49V49" id="u"/><path d="M118-107v75H92v-75H18v-26h74v-75h26v75h74v26h-74" id="v"/><g id="b"><use transform="matrix(0.05,0,0,0.05,0,0)" xlink:href="#u"/><use transform="matrix(0.05,0,0,0.05,3.95,0)" xlink:href="#v"/><use transform="matrix(0.05,0,0,0.05,14.449999999999998,0)" xlink:href="#s"/></g><g id="c"><use transform="matrix(0.05,0,0,0.05,0,0)" xlink:href="#q"/><use transform="matrix(0.05,0,0,0.05,3.95,0)" xlink:href="#t"/></g><g id="d"><use transform="matrix(0.05,0,0,0.05,0,0)" xlink:href="#q"/><use transform="matrix(0.05,0,0,0.05,3.95,0)" xlink:href="#v"/><use transform="matrix(0.05,0,0,0.05,14.449999999999998,0)" xlink:href="#s"/><use transform="matrix(0.05,0,0,0.05,24.45,0)" xlink:href="#t"/></g><use transform="matrix(0.05,0,0,0.05,0,0)" xlink:href="#u" id="e"/><g id="f"><use transform="matrix(0.05,0,0,0.05,0,0)" xlink:href="#u"/><use transform="matrix(0.05,0,0,0.05,3.95,0)" xlink:href="#r"/><use transform="matrix(0.05,0,0,0.05,9.9,0)" xlink:href="#s"/></g><path d="M117-194c89-4 53 116 60 194h-32v-121c0-31-8-49-39-48C34-167 62-67 57 0H25l-1-190h30c1 10-1 24 2 32 11-22 29-35 61-36" id="w"/><path d="M115-194c55 1 70 41 70 98S169 2 115 4C84 4 66-9 55-30l1 105H24l-1-265h31l2 30c10-21 28-34 59-34zm-8 174c40 0 45-34 45-75s-6-73-45-74c-42 0-51 32-51 76 0 43 10 73 51 73" id="x"/><path d="M84 4C-5 8 30-112 23-190h32v120c0 31 7 50 39 49 72-2 45-101 50-169h31l1 190h-30c-1-10 1-25-2-33-11 22-28 36-60 37" id="y"/><path d="M59-47c-2 24 18 29 38 22v24C64 9 27 4 27-40v-127H5v-23h24l9-43h21v43h35v23H59v120" id="z"/><path d="M135-143c-3-34-86-38-87 0 15 53 115 12 119 90S17 21 10-45l28-5c4 36 97 45 98 0-10-56-113-15-118-90-4-57 82-63 122-42 12 7 21 19 24 35" id="A"/><g id="g"><use transform="matrix(0.05,0,0,0.05,0,0)" xlink:href="#q"/><use transform="matrix(0.05,0,0,0.05,3.95,0)" xlink:href="#w"/><use transform="matrix(0.05,0,0,0.05,13.949999999999998,0)" xlink:href="#x"/><use transform="matrix(0.05,0,0,0.05,23.95,0)" xlink:href="#y"/><use transform="matrix(0.05,0,0,0.05,33.95,0)" xlink:href="#z"/><use transform="matrix(0.05,0,0,0.05,38.95,0)" xlink:href="#A"/></g><path d="M100-194c62-1 85 37 85 99 1 63-27 99-86 99S16-35 15-95c0-66 28-99 85-99zM99-20c44 1 53-31 53-75 0-43-8-75-51-75s-53 32-53 75 10 74 51 75" id="B"/><g id="h"><use transform="matrix(0.05,0,0,0.05,0,0)" xlink:href="#B"/><use transform="matrix(0.05,0,0,0.05,10,0)" xlink:href="#y"/><use transform="matrix(0.05,0,0,0.05,20,0)" xlink:href="#z"/><use transform="matrix(0.05,0,0,0.05,25,0)" xlink:href="#x"/><use transform="matrix(0.05,0,0,0.05,35,0)" xlink:href="#y"/><use transform="matrix(0.05,0,0,0.05,45,0)" xlink:href="#z"/><use transform="matrix(0.05,0,0,0.05,50,0)" xlink:href="#A"/></g><path d="M240 0l2-218c-23 76-54 145-80 218h-23L58-218 59 0H30v-248h44l77 211c21-75 51-140 76-211h43V0h-30" id="C"/><path d="M85-194c31 0 48 13 60 33l-1-100h32l1 261h-30c-2-10 0-23-3-31C134-8 116 4 85 4 32 4 16-35 15-94c0-66 23-100 70-100zm9 24c-40 0-46 34-46 75 0 40 6 74 45 74 42 0 51-32 51-76 0-42-9-74-50-73" id="D"/><path d="M100-194c63 0 86 42 84 106H49c0 40 14 67 53 68 26 1 43-12 49-29l28 8c-11 28-37 45-77 45C44 4 14-33 15-96c1-61 26-98 85-98zm52 81c6-60-76-77-97-28-3 7-6 17-6 28h103" id="E"/><path d="M24 0v-261h32V0H24" id="F"/><g id="i"><use transform="matrix(0.05,0,0,0.05,0,0)" xlink:href="#C"/><use transform="matrix(0.05,0,0,0.05,14.950000000000001,0)" xlink:href="#B"/><use transform="matrix(0.05,0,0,0.05,24.950000000000003,0)" xlink:href="#D"/><use transform="matrix(0.05,0,0,0.05,34.95,0)" xlink:href="#E"/><use transform="matrix(0.05,0,0,0.05,44.95,0)" xlink:href="#F"/></g><path d="M126-127c33 6 58 20 58 59 0 88-139 92-164 29-3-8-5-16-6-25l32-3c6 27 21 44 54 44 32 0 52-15 52-46 0-38-36-46-79-43v-28c39 1 72-4 72-42 0-27-17-43-46-43-28 0-47 15-49 41l-32-3c6-42 35-63 81-64 48-1 79 21 79 65 0 36-21 52-52 59" id="G"/><path d="M141 0L90-78 38 0H4l68-98-65-92h35l48 74 47-74h35l-64 92 68 98h-35" id="H"/><g id="j"><use transform="matrix(0.05,0,0,0.05,0,0)" xlink:href="#G"/><use transform="matrix(0.05,0,0,0.05,10,0)" xlink:href="#H"/><use transform="matrix(0.05,0,0,0.05,19,0)" xlink:href="#G"/></g><path d="M96-169c-40 0-48 33-48 73s9 75 48 75c24 0 41-14 43-38l32 2c-6 37-31 61-74 61-59 0-76-41-82-99-10-93 101-131 147-64 4 7 5 14 7 22l-32 3c-4-21-16-35-41-35" id="I"/><path d="M141-36C126-15 110 5 73 4 37 3 15-17 15-53c-1-64 63-63 125-63 3-35-9-54-41-54-24 1-41 7-42 31l-33-3c5-37 33-52 76-52 45 0 72 20 72 64v82c-1 20 7 32 28 27v20c-31 9-61-2-59-35zM48-53c0 20 12 33 32 33 41-3 63-29 60-74-43 2-92-5-92 41" id="J"/><g id="k"><use transform="matrix(0.05,0,0,0.05,0,0)" xlink:href="#F"/><use transform="matrix(0.05,0,0,0.05,3.95,0)" xlink:href="#B"/><use transform="matrix(0.05,0,0,0.05,13.949999999999998,0)" xlink:href="#I"/><use transform="matrix(0.05,0,0,0.05,22.95,0)" xlink:href="#J"/><use transform="matrix(0.05,0,0,0.05,32.95,0)" xlink:href="#F"/></g><g id="l"><use transform="matrix(0.05,0,0,0.05,0,0)" xlink:href="#A"/><use transform="matrix(0.05,0,0,0.05,9,0)" xlink:href="#z"/><use transform="matrix(0.05,0,0,0.05,14,0)" xlink:href="#E"/><use transform="matrix(0.05,0,0,0.05,24,0)" xlink:href="#w"/><use transform="matrix(0.05,0,0,0.05,34,0)" xlink:href="#I"/><use transform="matrix(0.05,0,0,0.05,43,0)" xlink:href="#q"/><use transform="matrix(0.05,0,0,0.05,46.95,0)" xlink:href="#F"/></g><path d="M30 0v-248h33v221h125V0H30" id="K"/><g id="m"><use transform="matrix(0.06172839506172839,0,0,0.06172839506172839,0,0)" xlink:href="#K"/><use transform="matrix(0.06172839506172839,0,0,0.06172839506172839,12.345679012345679,0)" xlink:href="#B"/><use transform="matrix(0.06172839506172839,0,0,0.06172839506172839,24.691358024691358,0)" xlink:href="#I"/><use transform="matrix(0.06172839506172839,0,0,0.06172839506172839,35.80246913580247,0)" xlink:href="#J"/><use transform="matrix(0.06172839506172839,0,0,0.06172839506172839,48.148148148148145,0)" xlink:href="#F"/></g><path d="M185-189c-5-48-123-54-124 2 14 75 158 14 163 119 3 78-121 87-175 55-17-10-28-26-33-46l33-7c5 56 141 63 141-1 0-78-155-14-162-118-5-82 145-84 179-34 5 7 8 16 11 25" id="L"/><g id="n"><use transform="matrix(0.06172839506172839,0,0,0.06172839506172839,0,0)" xlink:href="#L"/><use transform="matrix(0.06172839506172839,0,0,0.06172839506172839,14.814814814814813,0)" xlink:href="#z"/><use transform="matrix(0.06172839506172839,0,0,0.06172839506172839,20.98765432098765,0)" xlink:href="#E"/><use transform="matrix(0.06172839506172839,0,0,0.06172839506172839,33.33333333333333,0)" xlink:href="#w"/><use transform="matrix(0.06172839506172839,0,0,0.06172839506172839,45.679012345679006,0)" xlink:href="#I"/><use transform="matrix(0.06172839506172839,0,0,0.06172839506172839,56.79012345679011,0)" xlink:href="#q"/><use transform="matrix(0.06172839506172839,0,0,0.06172839506172839,61.66666666666666,0)" xlink:href="#F"/></g><path d="M106-169C34-169 62-67 57 0H25v-261h32l-1 103c12-21 28-36 61-36 89 0 53 116 60 194h-32v-121c2-32-8-49-39-48" id="M"/><g id="o"><use transform="matrix(0.06172839506172839,0,0,0.06172839506172839,0,0)" xlink:href="#C"/><use transform="matrix(0.06172839506172839,0,0,0.06172839506172839,18.456790123456788,0)" xlink:href="#J"/><use transform="matrix(0.06172839506172839,0,0,0.06172839506172839,30.80246913580247,0)" xlink:href="#I"/><use transform="matrix(0.06172839506172839,0,0,0.06172839506172839,41.91358024691358,0)" xlink:href="#M"/><use transform="matrix(0.06172839506172839,0,0,0.06172839506172839,54.25925925925926,0)" xlink:href="#q"/><use transform="matrix(0.06172839506172839,0,0,0.06172839506172839,59.135802469135804,0)" xlink:href="#w"/><use transform="matrix(0.06172839506172839,0,0,0.06172839506172839,71.48148148148148,0)" xlink:href="#E"/></g><path d="M114-163C36-179 61-72 57 0H25l-1-190h30c1 12-1 29 2 39 6-27 23-49 58-41v29" id="N"/><path d="M177-190C167-65 218 103 67 71c-23-6-38-20-44-43l32-5c15 47 100 32 89-28v-30C133-14 115 1 83 1 29 1 15-40 15-95c0-56 16-97 71-98 29-1 48 16 59 35 1-10 0-23 2-32h30zM94-22c36 0 50-32 50-73 0-42-14-75-50-75-39 0-46 34-46 75s6 73 46 73" id="O"/><g id="p"><use transform="matrix(0.06172839506172839,0,0,0.06172839506172839,0,0)" xlink:href="#K"/><use transform="matrix(0.06172839506172839,0,0,0.06172839506172839,12.345679012345679,0)" xlink:href="#E"/><use transform="matrix(0.06172839506172839,0,0,0.06172839506172839,24.691358024691358,0)" xlink:href="#J"/><use transform="matrix(0.06172839506172839,0,0,0.06172839506172839,37.03703703703704,0)" xlink:href="#N"/><use transform="matrix(0.06172839506172839,0,0,0.06172839506172839,44.382716049382715,0)" xlink:href="#w"/><use transform="matrix(0.06172839506172839,0,0,0.06172839506172839,56.72839506172839,0)" xlink:href="#q"/><use transform="matrix(0.06172839506172839,0,0,0.06172839506172839,61.60493827160494,0)" xlink:href="#w"/><use transform="matrix(0.06172839506172839,0,0,0.06172839506172839,73.95061728395062,0)" xlink:href="#O"/></g></defs></g></svg>